<svg width="215" height="212" viewBox="0 0 215 212" fill="none" xmlns="http://www.w3.org/2000/svg">
<rect width="215" height="212" fill="black" fill-opacity="0"/>
<rect width="68.208" height="67.9252" fill="black" fill-opacity="0" transform="translate(98.92 47.5707)"/>
<rect width="68.208" height="67.9252" fill="black" fill-opacity="0" transform="translate(98.92 47.5707)"/>
<path d="M156.961 57.3426C150.488 50.9868 141.886 47.5278 132.763 47.5711C123.64 47.6576 115.125 51.2462 108.739 57.6885C102.352 64.1307 98.877 72.6916 98.9204 81.7713C98.9204 83.1981 100.093 84.3655 101.527 84.3655C102.961 84.3655 104.134 83.1981 104.134 81.7713C104.09 74.0751 107.044 66.8546 112.431 61.3636C117.818 55.8725 125.073 52.846 132.806 52.8027C140.539 52.7595 147.794 55.6996 153.312 61.0609C158.829 66.4223 161.87 73.6428 161.913 81.3389C161.957 89.035 159.003 96.2555 153.616 101.747C148.229 107.238 140.974 110.264 133.241 110.307C131.807 110.307 130.634 111.475 130.634 112.902C130.634 114.328 131.807 115.496 133.241 115.496C142.364 115.409 150.879 111.821 157.265 105.378C163.651 98.9362 167.213 90.3321 167.127 81.2524C167.04 72.1727 163.434 63.6983 156.961 57.3426Z" fill="#EEEEEE"/>
<rect width="163.866" height="162.926" fill="black" fill-opacity="0" transform="translate(51.1339)"/>
<rect width="163.866" height="162.926" fill="black" fill-opacity="0" transform="translate(51.1339)"/>
<path d="M209.049 95.9961L200.969 92.6669C202.229 85.187 202.229 77.6638 200.969 70.2271L209.049 66.8979C211.352 65.9899 213.22 64.174 214.176 61.796C215.175 59.4179 215.175 56.8237 214.176 54.4457L209.658 43.5501C208.658 41.1721 206.834 39.3561 204.444 38.3617C202.055 37.3673 199.448 37.3673 197.059 38.3617L188.979 41.6909C184.591 35.5513 179.247 30.2332 173.035 25.8231L176.38 17.7811C178.422 12.8953 176.076 7.27456 171.167 5.24244L160.262 0.745832C155.353 -1.28629 149.706 1.04849 147.664 5.93423L144.319 13.9762C136.803 12.7224 129.244 12.7224 121.772 13.9762L118.427 5.93423C117.427 3.55621 115.603 1.74027 113.213 0.745832C110.824 -0.248611 108.217 -0.248611 105.828 0.745832L94.9237 5.24244C92.5343 6.23688 90.7097 8.05282 89.7105 10.4308C88.7113 12.8089 88.7113 15.403 89.7105 17.7811L93.0556 25.8231C86.8867 30.19 81.5432 35.5081 77.1119 41.6909L69.0315 38.3617C66.6421 37.3673 64.0355 37.3673 61.6461 38.3617C59.2567 39.3561 57.4321 41.1721 56.4329 43.5501L51.8714 54.4025C49.8295 59.2882 52.1755 64.909 57.0846 66.9411L67.12 71.0918C68.4667 71.6539 69.9872 71.0054 70.5086 69.7083C71.0733 68.3679 70.4217 66.8546 69.1184 66.3358L59.083 62.1851C56.8239 61.2339 55.7378 58.6829 56.6936 56.4346L61.2117 45.5822C62.124 43.3339 64.7306 42.253 66.9896 43.2042L77.0251 47.3549C78.1546 47.8305 79.5013 47.4414 80.1964 46.4037C84.8449 39.4859 90.7532 33.6057 97.6606 29.0226C98.7033 28.3308 99.0943 27.0337 98.6164 25.8663L94.4458 15.8787C94.0114 14.7977 94.0114 13.5871 94.4458 12.5062C94.8803 11.4253 95.7491 10.5605 96.8352 10.1282L107.783 5.63157C108.869 5.1992 110.085 5.1992 111.172 5.63157C112.258 6.06394 113.126 6.92867 113.561 8.00959L117.731 17.9972C118.209 19.1214 119.426 19.77 120.642 19.5538C128.853 17.9108 137.151 17.9108 145.361 19.5538C146.578 19.8132 147.794 19.1646 148.272 17.9972L152.443 8.00959C153.398 5.76128 155.962 4.68037 158.221 5.63157L169.125 10.1282C171.384 11.0794 172.47 13.6303 171.514 15.8787L167.431 25.7798C166.953 26.904 167.344 28.2443 168.386 28.9361C175.337 33.5624 181.246 39.4426 185.851 46.3172C186.546 47.3549 187.849 47.744 189.022 47.2684L199.057 43.1177C200.143 42.6854 201.36 42.6854 202.446 43.1177C203.532 43.5501 204.401 44.4148 204.835 45.4957L209.353 56.3914C209.788 57.4723 209.788 58.6829 209.353 59.7638C208.919 60.8447 208.05 61.7095 206.964 62.1418L196.929 66.2926C195.799 66.7682 195.148 67.9788 195.365 69.1894C197.016 77.3611 196.972 85.6193 195.365 93.7911C195.104 95.0017 195.756 96.2123 196.929 96.6879L206.964 100.839C209.223 101.79 210.309 104.341 209.353 106.589L204.835 117.441C203.88 119.69 201.316 120.771 199.057 119.82L189.022 115.669C187.892 115.193 186.546 115.582 185.851 116.62C181.202 123.538 175.294 129.418 168.386 134.001C167.344 134.693 166.953 135.99 167.431 137.157L171.601 147.145C172.036 148.226 172.036 149.437 171.601 150.518C171.167 151.598 170.298 152.463 169.212 152.896L158.264 157.392C157.178 157.825 155.962 157.825 154.876 157.392C153.789 156.96 152.921 156.095 152.486 155.014L148.316 145.026C147.751 143.686 146.23 143.081 144.927 143.643C143.58 144.205 142.972 145.718 143.537 147.015L147.707 157.003C148.707 159.381 150.531 161.197 152.921 162.191C154.094 162.667 155.353 162.926 156.613 162.926C157.873 162.926 159.133 162.667 160.306 162.191L171.254 157.695C173.643 156.7 175.468 154.884 176.467 152.506C177.466 150.128 177.466 147.534 176.467 145.156L173.122 137.114C179.291 132.747 184.634 127.429 189.065 121.246L197.146 124.576C199.535 125.57 202.142 125.57 204.531 124.576C206.921 123.581 208.745 121.765 209.744 119.387L214.263 108.535C216.304 103.649 213.958 98.0283 209.049 95.9961Z" fill="#EEEEEE"/>
<rect width="48.8303" height="48.598" fill="black" fill-opacity="0" transform="translate(38.4039 125.138)"/>
<rect width="48.8303" height="48.598" fill="black" fill-opacity="0" transform="translate(38.4039 125.138)"/>
<path d="M62.8191 125.138C49.3517 125.138 38.4039 136.076 38.4039 149.48C38.4039 162.883 49.3517 173.736 62.8191 173.736C76.2865 173.736 87.2342 162.84 87.2342 149.437C87.2342 136.033 76.2865 125.138 62.8191 125.138ZM62.8191 168.59C52.2189 168.59 43.6171 160.03 43.6171 149.48C43.6171 138.93 52.2189 130.369 62.8191 130.369C73.4193 130.369 82.021 138.93 82.021 149.48C82.021 160.03 73.4193 168.59 62.8191 168.59Z" fill="#EEEEEE"/>
<rect width="125.638" height="125.17" fill="black" fill-opacity="0" transform="translate(0 86.83)"/>
<rect width="125.638" height="125.17" fill="black" fill-opacity="0" transform="translate(0 86.83)"/>
<path d="M117.905 137.417H112.127C110.911 132.358 108.912 127.602 106.176 123.149L110.259 119.084C111.736 117.614 112.518 115.712 112.518 113.637C112.518 111.605 111.736 109.659 110.259 108.189L104.177 102.136C102.7 100.666 100.789 99.8874 98.7033 99.8874C96.618 99.8874 94.7065 100.666 93.2294 102.136L89.1457 106.2C84.6711 103.476 79.8923 101.53 74.8094 100.277V94.5261C74.8094 90.2889 71.334 86.83 67.0765 86.83H58.4747C54.2173 86.83 50.7418 90.2889 50.7418 94.5261V100.277C45.659 101.487 40.8802 103.476 36.4055 106.2L32.3218 102.136C30.8448 100.666 28.9333 99.8874 26.848 99.8874C24.8061 99.8874 22.8512 100.666 21.3741 102.136L15.2921 108.189C13.815 109.659 13.033 111.561 13.033 113.637C13.033 115.669 13.815 117.614 15.2921 119.084L19.3757 123.149C16.6388 127.602 14.6838 132.358 13.424 137.417H7.73291C3.47547 137.417 0 140.876 0 145.113V153.674C0.0434433 157.997 3.47547 161.413 7.73291 161.413H13.5109C14.7273 166.472 16.7257 171.228 19.4626 175.681L15.3789 179.745C13.9019 181.216 13.1199 183.118 13.1199 185.193C13.1199 187.225 13.9019 189.171 15.3789 190.641L21.461 196.694C22.9381 198.164 24.8496 198.943 26.9349 198.943C28.9767 198.943 30.9317 198.164 32.4087 196.694L36.4924 192.63C40.9671 195.354 45.7458 197.3 50.8287 198.553V204.304C50.8287 208.541 54.3042 212 58.5616 212H67.1634C71.4209 212 74.8963 208.541 74.8963 204.304V198.51C79.9792 197.3 84.7579 195.311 89.2326 192.587L93.3163 196.651C94.7934 198.121 96.7049 198.899 98.7901 198.899C100.875 198.899 102.787 198.121 104.264 196.651L110.346 190.598C111.823 189.128 112.605 187.225 112.605 185.15C112.605 183.118 111.823 181.172 110.346 179.702L106.262 175.638C108.999 171.185 110.954 166.429 112.214 161.37H117.905C122.163 161.37 125.638 157.911 125.638 153.674V145.113C125.638 140.876 122.163 137.417 117.905 137.417ZM120.425 153.76C120.425 155.144 119.295 156.268 117.905 156.268H109.999C108.739 156.268 107.696 157.133 107.435 158.343C106.262 164.18 104.003 169.671 100.658 174.6C99.9631 175.638 100.093 177.022 100.962 177.886L106.567 183.464C107.044 183.939 107.305 184.545 107.305 185.237C107.305 185.885 107.044 186.534 106.567 187.009L100.484 193.062C100.007 193.538 99.3984 193.797 98.7033 193.797C98.0082 193.797 97.4 193.538 96.9221 193.062L91.3179 187.485C90.449 186.62 89.0588 186.49 88.0162 187.182C83.0202 190.511 77.5464 192.76 71.6815 193.927C70.4651 194.187 69.5962 195.224 69.5962 196.478V204.347C69.5962 205.731 68.4667 206.855 67.0765 206.855H58.4747C57.0845 206.855 55.955 205.731 55.955 204.347V196.478C55.955 195.224 55.0862 194.187 53.8697 193.927C48.0049 192.76 42.4876 190.511 37.535 187.182C37.1006 186.88 36.5793 186.75 36.1014 186.75C35.4498 186.75 34.7547 187.009 34.2768 187.528L28.6726 193.106C28.1947 193.581 27.5865 193.841 26.8914 193.841C26.2398 193.841 25.5881 193.581 25.1102 193.106L19.0282 187.052C18.5503 186.577 18.2896 185.972 18.2896 185.28C18.2896 184.631 18.5503 183.983 19.0282 183.507L24.6324 177.93C25.5012 177.065 25.6316 175.681 24.9365 174.644C21.5913 169.671 19.3323 164.224 18.1593 158.387C17.8987 157.176 16.856 156.311 15.5962 156.311H7.73291C6.34273 156.311 5.2132 155.187 5.2132 153.803V145.199H5.25664C5.25664 143.816 6.38617 142.692 7.77636 142.692H15.683C16.9429 142.692 17.9855 141.827 18.2462 140.616C19.4192 134.779 21.6782 129.288 25.0234 124.359C25.7185 123.322 25.5881 121.938 24.7193 121.073L19.0716 115.496C18.5938 115.02 18.3331 114.415 18.3331 113.723C18.3331 113.075 18.5938 112.426 19.0716 111.95L25.1537 105.897C25.6316 105.422 26.2398 105.162 26.9349 105.162C27.5865 105.162 28.2382 105.422 28.716 105.897L34.3202 111.475C35.1891 112.34 36.5793 112.469 37.6219 111.777C42.6179 108.448 48.0918 106.2 53.9566 105.033C55.173 104.773 56.0419 103.735 56.0419 102.482V94.6125C56.0419 93.229 57.1714 92.1048 58.5616 92.1048H67.1634C68.5536 92.1048 69.6831 93.229 69.6831 94.6125V102.525C69.6831 103.779 70.552 104.816 71.7684 105.076C77.6332 106.243 83.1506 108.492 88.1031 111.821C89.1457 112.513 90.5359 112.383 91.4048 111.518L97.009 105.941C97.4869 105.465 98.0951 105.206 98.7901 105.206C99.4852 105.206 100.093 105.465 100.571 105.941L106.653 111.994C107.131 112.469 107.392 113.075 107.392 113.766C107.392 114.415 107.131 115.063 106.653 115.539L100.962 121.073C100.093 121.938 99.9631 123.322 100.658 124.359C104.003 129.332 106.262 134.779 107.435 140.616C107.696 141.827 108.739 142.692 109.999 142.692H117.905C119.295 142.692 120.425 143.816 120.425 145.199V153.76Z" fill="#EEEEEE"/>
</svg>
